<svg width="27" height="27" viewBox="0 0 27 27" fill="none" xmlns="http://www.w3.org/2000/svg">
<g clip-path="url(#clip0_303_4126)">
<path d="M26.9933 26.9998V26.9986H27V17.0964C27 12.2521 25.9572 8.52051 20.2939 8.52051C17.5714 8.52051 15.7444 10.0145 14.9985 11.4309H14.9198V8.97276H9.55017V26.9986H15.1414V18.0729C15.1414 15.7228 15.5869 13.4503 18.4973 13.4503C21.3649 13.4503 21.4077 16.1323 21.4077 18.2236V26.9998H26.9933Z" fill="#01966B"/>
<path d="M0.445679 8.97461H6.04368V27.0005H0.445679V8.97461Z" fill="#01966B"/>
<path d="M3.24225 0C1.45238 0 0 1.45238 0 3.24225C0 5.03213 1.45238 6.51488 3.24225 6.51488C5.03213 6.51488 6.4845 5.03213 6.4845 3.24225C6.48338 1.45238 5.031 0 3.24225 0V0Z" fill="#01966B"/>
</g>
<defs>
<clipPath id="clip0_303_4126">
<rect width="27" height="27" fill="white"/>
</clipPath>
</defs>
</svg>
