<svg width="287" height="208" viewBox="0 0 287 208" fill="none" xmlns="http://www.w3.org/2000/svg">
<path opacity="0.05" d="M167.98 131.141L194.277 121.578C199.855 136.188 209.219 143.492 222.367 143.492C228.875 143.492 234.32 141.367 238.703 137.117C243.219 132.734 245.477 126.891 245.477 119.586C245.477 112.945 243.02 107.367 238.105 102.852C233.324 98.3359 226.883 96.0781 218.781 96.0781C213.469 96.0781 208.156 96.3438 202.844 96.875V69.9805C206.695 70.2461 211.742 70.3789 217.984 70.3789C223.961 70.3789 229.141 68.4531 233.523 64.6016C237.906 60.6172 240.098 55.1055 240.098 48.0664C240.098 41.957 238.238 37.043 234.52 33.3242C230.934 29.4727 226.418 27.5469 220.973 27.5469C210.48 27.5469 202.91 35.0508 198.262 50.0586L171.367 41.8906C174.156 29.4063 180.066 19.3789 189.098 11.8086C198.129 4.10547 209.418 0.253906 222.965 0.253906C238.504 0.253906 250.922 4.4375 260.219 12.8047C269.516 21.1719 274.164 31.8633 274.164 44.8789C274.164 52.8477 272.238 60.0859 268.387 66.5938C264.668 72.9688 259.887 77.8828 254.043 81.3359C260.949 83.9922 266.992 88.6406 272.172 95.2812C277.352 101.922 279.941 110.023 279.941 119.586C279.941 135.391 274.762 147.875 264.402 157.039C254.043 166.07 240.164 170.586 222.766 170.586C208.555 170.586 196.535 166.734 186.707 159.031C176.879 151.328 170.637 142.031 167.98 131.141Z" fill="black"/>
<rect y="18" width="64" height="64" rx="20" fill="white"/>
<rect x="20" y="38" width="23" height="23" rx="10" fill="#C4C4C4"/>
</svg>
