<svg width="295" height="208" viewBox="0 0 295 208" fill="none" xmlns="http://www.w3.org/2000/svg">
<path opacity="0.05" d="M178.668 46.2705C181.723 32.0596 187.699 20.8369 196.598 12.6025C205.496 4.36816 217.051 0.250977 231.262 0.250977C246.402 0.250977 258.82 4.63379 268.516 13.3994C278.211 22.165 283.059 33.8525 283.059 48.4619C283.059 58.0244 280.867 66.5908 276.484 74.1611C272.234 81.7314 266.125 89.3682 258.156 97.0713C256.828 98.3994 253.176 101.919 247.199 107.63C241.355 113.208 236.309 118.521 232.059 123.567C227.809 128.614 224.09 134.06 220.902 139.903H282.262V166.997H180.66C180.66 159.825 181.723 152.786 183.848 145.88C185.973 138.974 188.363 132.997 191.02 127.95C193.809 122.771 197.66 117.192 202.574 111.216C207.621 105.239 211.805 100.524 215.125 97.0713C218.578 93.6182 223.16 89.2354 228.871 83.9229C230.465 82.4619 231.66 81.333 232.457 80.5361C243.348 70.1768 248.793 59.2197 248.793 47.665C248.793 41.4229 247.133 36.5088 243.812 32.9229C240.625 29.3369 236.375 27.5439 231.062 27.5439C218.844 27.5439 210.676 36.5752 206.559 54.6377L178.668 46.2705Z" fill="black"/>
<rect x="0.5" y="16.9969" width="64" height="64" rx="20" fill="white"/>
<rect x="21.5" y="37.9971" width="23" height="23" rx="10" fill="#C4C4C4"/>
</svg>
