<svg width="35" height="27" viewBox="0 0 35 27" fill="none" xmlns="http://www.w3.org/2000/svg">
<path d="M34.6168 3.20269C33.3438 3.74391 31.9762 4.10959 30.5386 4.27488C32.022 3.42326 33.1318 2.08292 33.6609 0.50394C32.2672 1.29819 30.7419 1.85726 29.1512 2.15684C28.0815 1.06105 26.6647 0.33474 25.1208 0.0906787C23.5768 -0.153382 21.992 0.0984568 20.6125 0.807097C19.233 1.51574 18.1359 2.64153 17.4916 4.00969C16.8473 5.37785 16.6918 6.91183 17.0492 8.37347C14.2252 8.23743 11.4626 7.5332 8.9407 6.30649C6.41876 5.07977 4.19384 3.35798 2.41034 1.25286C1.80051 2.26215 1.44986 3.43234 1.44986 4.6786C1.44918 5.80051 1.73714 6.90524 2.28819 7.89477C2.83924 8.8843 3.63633 9.72803 4.60876 10.3511C3.481 10.3167 2.37813 10.0243 1.39193 9.49832V9.58608C1.39181 11.1596 1.95912 12.6847 2.99757 13.9026C4.03603 15.1205 5.48168 15.9562 7.08923 16.2679C6.04305 16.5395 4.9462 16.5795 3.88154 16.3849C4.3351 17.7388 5.21858 18.9228 6.40831 19.771C7.59804 20.6193 9.03445 21.0893 10.5165 21.1154C8.00066 23.0102 4.89368 24.0381 1.69532 24.0336C1.12876 24.0337 0.562681 24.002 0 23.9385C3.24653 25.9412 7.02572 27.0041 10.8854 27C23.9509 27 31.0935 16.6175 31.0935 7.61285C31.0935 7.3203 31.0859 7.02483 31.0722 6.73228C32.4615 5.7683 33.6607 4.57459 34.6137 3.20708L34.6168 3.20269Z" fill="#01966B"/>
</svg>
